<svg width="32" height="32" viewBox="0 0 32 32" fill="none" xmlns="http://www.w3.org/2000/svg">
<path fill-rule="evenodd" clip-rule="evenodd" d="M12.1733 15.2327H18.9553C19.2092 15.2327 19.417 15.4993 19.417 15.825C19.417 16.1507 19.2092 16.4171 18.9553 16.4171H12.1733C11.9194 16.4171 11.7117 16.1507 11.7117 15.825C11.7117 15.4993 11.9194 15.2327 12.1733 15.2327ZM12.7192 15.4281H18.4095C18.5796 15.4281 18.7188 15.6067 18.7188 15.825C18.7188 16.0433 18.5796 16.2219 18.4095 16.2219H12.7192C12.549 16.2219 12.4098 16.0433 12.4098 15.825C12.4098 15.6067 12.549 15.4281 12.7192 15.4281Z" fill="url(#paint0_linear_8_83)"/>
<path fill-rule="evenodd" clip-rule="evenodd" d="M10.3623 18.5883C13.784 18.5883 17.2063 18.5883 20.628 18.5883C21.1134 18.8241 21.8841 19.2348 21.7115 20.0955C21.4838 21.1923 21.1554 22.4185 20.5404 22.9704C19.7897 23.114 18.9836 23.0993 18.156 23.0243C18.9634 22.9886 19.7499 22.9884 20.4025 22.6528C20.8654 22.4147 21.2343 20.5188 21.2919 19.9025C21.3349 19.5671 20.8656 19.1778 20.5719 19.0367C17.187 19.0458 13.8033 19.0458 10.4185 19.0367C10.1248 19.1778 9.65537 19.5671 9.69836 19.9025C9.75612 20.5188 10.1249 22.4147 10.5878 22.6528C11.2406 22.9884 12.027 22.9886 12.8343 23.0243C12.0067 23.0993 11.2005 23.114 10.45 22.9704C9.83487 22.4185 9.50651 21.1923 9.2789 20.0955C9.1062 19.2348 9.87687 18.8241 10.3623 18.5883Z" fill="url(#paint1_linear_8_83)"/>
<path fill-rule="evenodd" clip-rule="evenodd" d="M6.64504 15.0246C7.31637 16.2388 7.60997 16.5019 9.2671 17.6981C7.8065 17.12 5.83321 16.0994 5.9727 15.654C6.04649 15.3702 6.5887 15.2691 6.64504 15.0246Z" fill="url(#paint2_linear_8_83)"/>
<path fill-rule="evenodd" clip-rule="evenodd" d="M10.2467 9.8603C13.8573 8.74529 17.4322 8.67192 20.8821 9.88852C17.5128 9.28932 13.9766 9.27184 10.2467 9.8603Z" fill="url(#paint3_linear_8_83)"/>
<path fill-rule="evenodd" clip-rule="evenodd" d="M8.58628 20.4775C8.05088 18.3607 6.00863 18.0268 4.57286 17.7233C4.13921 17.6635 3.73408 20.084 4.22336 20.3427C4.80501 20.6273 5.7139 20.9623 6.251 20.4594L8.3835 20.5761C8.5149 20.5765 8.60884 20.5705 8.58628 20.4775Z" fill="url(#paint4_linear_8_83)"/>
<path fill-rule="evenodd" clip-rule="evenodd" d="M5.99311 20.8409L4.44312 18.9701L6.90427 20.9976" fill="white"/>
<path fill-rule="evenodd" clip-rule="evenodd" d="M5.11574 17.6544L6.66574 19.5252L4.20459 17.4977" fill="white"/>
<path fill-rule="evenodd" clip-rule="evenodd" d="M22.3915 20.4421C22.927 18.3254 24.9692 17.9916 26.4049 17.6879C26.8387 17.6284 27.2438 20.0488 26.7546 20.3076C26.1729 20.5921 25.264 20.9272 24.7269 20.4243L22.5943 20.5408C22.463 20.5414 22.3691 20.5352 22.3915 20.4421Z" fill="url(#paint5_linear_8_83)"/>
<path fill-rule="evenodd" clip-rule="evenodd" d="M24.9848 20.8055L26.5348 18.9349L24.0736 20.9625" fill="white"/>
<path fill-rule="evenodd" clip-rule="evenodd" d="M25.8621 17.6193L24.3121 19.4901L26.7733 17.4625" fill="white"/>
<path fill-rule="evenodd" clip-rule="evenodd" d="M10.2039 19.9349C13.6341 20.4545 17.1073 20.4955 20.6308 19.9786C17.1575 20.0254 13.6819 20.0103 10.2039 19.9349Z" fill="url(#paint6_linear_8_83)"/>
<path fill-rule="evenodd" clip-rule="evenodd" d="M10.3942 20.8982C13.7079 21.4003 17.0631 21.4399 20.4671 20.9404C17.1117 20.9856 13.754 20.9712 10.3942 20.8982Z" fill="url(#paint7_linear_8_83)"/>
<path fill-rule="evenodd" clip-rule="evenodd" d="M10.819 21.7871C13.8182 22.2415 16.8552 22.2774 19.9362 21.8253C16.8991 21.8661 13.8601 21.853 10.819 21.7871Z" fill="url(#paint8_linear_8_83)"/>
<path fill-rule="evenodd" clip-rule="evenodd" d="M7.5127 14.4578C7.96111 14.4596 8.40923 14.4605 8.85708 14.4609C9.21538 14.9993 9.57893 15.3417 10.1995 15.4659C9.93766 15.242 9.7854 14.9122 9.82187 14.4611C13.4343 14.4587 17.0322 14.4294 20.6452 14.4893C20.6733 14.9261 20.522 15.2467 20.2657 15.4659C20.8684 15.3454 21.2287 15.0187 21.5773 14.5068C22.2562 14.521 22.9358 14.5386 23.616 14.5607C23.2768 13.6255 21.7649 10.6607 20.9354 10.3812C19.4526 9.88178 10.6537 9.8796 9.8274 10.617C9.06312 11.299 7.81849 13.7306 7.5127 14.4578Z" fill="url(#paint9_linear_8_83)"/>
<path fill-rule="evenodd" clip-rule="evenodd" d="M12.8199 10.6778L9.46841 10.6117L9.34595 11.0194" fill="white"/>
<path fill-rule="evenodd" clip-rule="evenodd" d="M13.3342 11.1046L9.11589 11.1197L8.99329 11.531" fill="white"/>
<path fill-rule="evenodd" clip-rule="evenodd" d="M13.8908 11.6586L8.77029 11.647L8.64783 12.0583" fill="white"/>
<path fill-rule="evenodd" clip-rule="evenodd" d="M14.4716 12.2704L8.46317 12.2138L8.35461 12.6788" fill="white"/>
<path fill-rule="evenodd" clip-rule="evenodd" d="M14.704 12.9189L8.19206 12.8623L7.9856 13.3273" fill="white"/>
<path fill-rule="evenodd" clip-rule="evenodd" d="M9.93605 10.061C8.4333 11.0512 7.22032 14.1716 6.93027 14.6311C6.87621 13.4628 8.8776 10.1731 9.93605 10.061Z" fill="url(#paint10_linear_8_83)"/>
<path fill-rule="evenodd" clip-rule="evenodd" d="M21.1926 10.061C22.6955 11.0512 23.9083 14.1716 24.1985 14.6311C24.2526 13.4628 22.2511 10.1731 21.1926 10.061Z" fill="url(#paint11_linear_8_83)"/>
<path fill-rule="evenodd" clip-rule="evenodd" d="M11.7293 19.0662C11.8741 21.2454 11.8741 20.5423 11.7293 22.7215C11.5844 20.5423 11.5844 21.2454 11.7293 19.0662Z" fill="url(#paint12_linear_8_83)"/>
<path fill-rule="evenodd" clip-rule="evenodd" d="M12.4669 19.0662C12.6118 21.2454 12.6118 20.5423 12.4669 22.7215C12.3221 20.5423 12.3221 21.2454 12.4669 19.0662Z" fill="url(#paint13_linear_8_83)"/>
<path fill-rule="evenodd" clip-rule="evenodd" d="M13.2045 19.0662C13.3494 21.2454 13.3494 20.5423 13.2045 22.7215C13.0596 20.5423 13.0596 21.2454 13.2045 19.0662Z" fill="url(#paint14_linear_8_83)"/>
<path fill-rule="evenodd" clip-rule="evenodd" d="M13.9422 19.0662C14.087 21.2454 14.087 20.5423 13.9422 22.7215C13.7973 20.5423 13.7973 21.2454 13.9422 19.0662Z" fill="url(#paint15_linear_8_83)"/>
<path fill-rule="evenodd" clip-rule="evenodd" d="M14.6797 19.0662C14.8246 21.2454 14.8246 20.5423 14.6797 22.7215C14.5348 20.5423 14.5348 21.2454 14.6797 19.0662Z" fill="url(#paint16_linear_8_83)"/>
<path fill-rule="evenodd" clip-rule="evenodd" d="M15.4174 19.0662C15.5623 21.2454 15.5623 20.5423 15.4174 22.7215C15.2725 20.5423 15.2725 21.2454 15.4174 19.0662Z" fill="url(#paint17_linear_8_83)"/>
<path fill-rule="evenodd" clip-rule="evenodd" d="M16.1549 19.0662C16.2998 21.2454 16.2998 20.5423 16.1549 22.7215C16.01 20.5423 16.01 21.2454 16.1549 19.0662Z" fill="url(#paint18_linear_8_83)"/>
<path fill-rule="evenodd" clip-rule="evenodd" d="M16.8926 19.0662C17.0376 21.2454 17.0376 20.5423 16.8926 22.7215C16.7477 20.5423 16.7477 21.2454 16.8926 19.0662Z" fill="url(#paint19_linear_8_83)"/>
<path fill-rule="evenodd" clip-rule="evenodd" d="M17.6303 19.0662C17.775 21.2454 17.775 20.5423 17.6303 22.7215C17.4852 20.5423 17.4852 21.2454 17.6303 19.0662Z" fill="url(#paint20_linear_8_83)"/>
<path fill-rule="evenodd" clip-rule="evenodd" d="M18.3678 19.0662C18.5128 21.2454 18.5128 20.5423 18.3678 22.7215C18.2229 20.5423 18.2229 21.2454 18.3678 19.0662Z" fill="url(#paint21_linear_8_83)"/>
<path fill-rule="evenodd" clip-rule="evenodd" d="M19.1055 19.0662C19.2504 21.2454 19.2504 20.5423 19.1055 22.7215C18.9604 20.5423 18.9604 21.2454 19.1055 19.0662Z" fill="url(#paint22_linear_8_83)"/>
<path fill-rule="evenodd" clip-rule="evenodd" d="M24.4875 15.0246C23.8163 16.2388 23.5227 16.5019 21.8656 17.6981C23.3262 17.12 25.2995 16.0994 25.16 15.654C25.0861 15.3702 24.5439 15.2691 24.4875 15.0246Z" fill="url(#paint23_linear_8_83)"/>
<path fill-rule="evenodd" clip-rule="evenodd" d="M6.36976 14.5026C6.21537 13.1107 4.08514 12.9146 4.06116 14.015C4.26025 13.1578 5.56177 13.5418 5.86658 14.9374" fill="url(#paint24_linear_8_83)"/>
<path fill-rule="evenodd" clip-rule="evenodd" d="M24.7589 14.5026C24.9134 13.1107 27.0437 12.9146 27.0677 14.015C26.8684 13.1578 25.567 13.5418 25.2621 14.9374" fill="url(#paint25_linear_8_83)"/>
<rect x="0.5" y="0.5" width="31" height="31" rx="15.5" stroke="url(#paint26_linear_8_83)"/>
<defs>
<linearGradient id="paint0_linear_8_83" x1="15.5643" y1="15.2327" x2="15.5643" y2="16.4171" gradientUnits="userSpaceOnUse">
<stop stop-color="#042890"/>
<stop offset="1" stop-color="#0A6FA0"/>
</linearGradient>
<linearGradient id="paint1_linear_8_83" x1="15.4952" y1="18.5883" x2="15.4952" y2="23.08" gradientUnits="userSpaceOnUse">
<stop stop-color="#042890"/>
<stop offset="1" stop-color="#0A6FA0"/>
</linearGradient>
<linearGradient id="paint2_linear_8_83" x1="7.6164" y1="15.0246" x2="7.6164" y2="17.6981" gradientUnits="userSpaceOnUse">
<stop stop-color="#042890"/>
<stop offset="1" stop-color="#0A6FA0"/>
</linearGradient>
<linearGradient id="paint3_linear_8_83" x1="15.5644" y1="8.99997" x2="15.5644" y2="9.88852" gradientUnits="userSpaceOnUse">
<stop stop-color="#042890"/>
<stop offset="1" stop-color="#0A6FA0"/>
</linearGradient>
<linearGradient id="paint4_linear_8_83" x1="6.29482" y1="17.7222" x2="6.29482" y2="20.7185" gradientUnits="userSpaceOnUse">
<stop stop-color="#042890"/>
<stop offset="1" stop-color="#0A6FA0"/>
</linearGradient>
<linearGradient id="paint5_linear_8_83" x1="24.6831" y1="17.6868" x2="24.6831" y2="20.6834" gradientUnits="userSpaceOnUse">
<stop stop-color="#042890"/>
<stop offset="1" stop-color="#0A6FA0"/>
</linearGradient>
<linearGradient id="paint6_linear_8_83" x1="15.4173" y1="19.9349" x2="15.4173" y2="20.3461" gradientUnits="userSpaceOnUse">
<stop stop-color="#042890"/>
<stop offset="1" stop-color="#0A6FA0"/>
</linearGradient>
<linearGradient id="paint7_linear_8_83" x1="15.4306" y1="20.8982" x2="15.4306" y2="21.2955" gradientUnits="userSpaceOnUse">
<stop stop-color="#042890"/>
<stop offset="1" stop-color="#0A6FA0"/>
</linearGradient>
<linearGradient id="paint8_linear_8_83" x1="15.3776" y1="21.7871" x2="15.3776" y2="22.1467" gradientUnits="userSpaceOnUse">
<stop stop-color="#042890"/>
<stop offset="1" stop-color="#0A6FA0"/>
</linearGradient>
<linearGradient id="paint9_linear_8_83" x1="15.5644" y1="10.0311" x2="15.5644" y2="15.4659" gradientUnits="userSpaceOnUse">
<stop stop-color="#042890"/>
<stop offset="1" stop-color="#0A6FA0"/>
</linearGradient>
<linearGradient id="paint10_linear_8_83" x1="8.43262" y1="10.061" x2="8.43262" y2="14.6311" gradientUnits="userSpaceOnUse">
<stop stop-color="#042890"/>
<stop offset="1" stop-color="#0A6FA0"/>
</linearGradient>
<linearGradient id="paint11_linear_8_83" x1="22.6961" y1="10.061" x2="22.6961" y2="14.6311" gradientUnits="userSpaceOnUse">
<stop stop-color="#042890"/>
<stop offset="1" stop-color="#0A6FA0"/>
</linearGradient>
<linearGradient id="paint12_linear_8_83" x1="11.7293" y1="19.0662" x2="11.7293" y2="22.7215" gradientUnits="userSpaceOnUse">
<stop stop-color="#042890"/>
<stop offset="1" stop-color="#0A6FA0"/>
</linearGradient>
<linearGradient id="paint13_linear_8_83" x1="12.4669" y1="19.0662" x2="12.4669" y2="22.7215" gradientUnits="userSpaceOnUse">
<stop stop-color="#042890"/>
<stop offset="1" stop-color="#0A6FA0"/>
</linearGradient>
<linearGradient id="paint14_linear_8_83" x1="13.2045" y1="19.0662" x2="13.2045" y2="22.7215" gradientUnits="userSpaceOnUse">
<stop stop-color="#042890"/>
<stop offset="1" stop-color="#0A6FA0"/>
</linearGradient>
<linearGradient id="paint15_linear_8_83" x1="13.9422" y1="19.0662" x2="13.9422" y2="22.7215" gradientUnits="userSpaceOnUse">
<stop stop-color="#042890"/>
<stop offset="1" stop-color="#0A6FA0"/>
</linearGradient>
<linearGradient id="paint16_linear_8_83" x1="14.6797" y1="19.0662" x2="14.6797" y2="22.7215" gradientUnits="userSpaceOnUse">
<stop stop-color="#042890"/>
<stop offset="1" stop-color="#0A6FA0"/>
</linearGradient>
<linearGradient id="paint17_linear_8_83" x1="15.4174" y1="19.0662" x2="15.4174" y2="22.7215" gradientUnits="userSpaceOnUse">
<stop stop-color="#042890"/>
<stop offset="1" stop-color="#0A6FA0"/>
</linearGradient>
<linearGradient id="paint18_linear_8_83" x1="16.1549" y1="19.0662" x2="16.1549" y2="22.7215" gradientUnits="userSpaceOnUse">
<stop stop-color="#042890"/>
<stop offset="1" stop-color="#0A6FA0"/>
</linearGradient>
<linearGradient id="paint19_linear_8_83" x1="16.8927" y1="19.0662" x2="16.8927" y2="22.7215" gradientUnits="userSpaceOnUse">
<stop stop-color="#042890"/>
<stop offset="1" stop-color="#0A6FA0"/>
</linearGradient>
<linearGradient id="paint20_linear_8_83" x1="17.6301" y1="19.0662" x2="17.6301" y2="22.7215" gradientUnits="userSpaceOnUse">
<stop stop-color="#042890"/>
<stop offset="1" stop-color="#0A6FA0"/>
</linearGradient>
<linearGradient id="paint21_linear_8_83" x1="18.3679" y1="19.0662" x2="18.3679" y2="22.7215" gradientUnits="userSpaceOnUse">
<stop stop-color="#042890"/>
<stop offset="1" stop-color="#0A6FA0"/>
</linearGradient>
<linearGradient id="paint22_linear_8_83" x1="19.1054" y1="19.0662" x2="19.1054" y2="22.7215" gradientUnits="userSpaceOnUse">
<stop stop-color="#042890"/>
<stop offset="1" stop-color="#0A6FA0"/>
</linearGradient>
<linearGradient id="paint23_linear_8_83" x1="23.5163" y1="15.0246" x2="23.5163" y2="17.6981" gradientUnits="userSpaceOnUse">
<stop stop-color="#042890"/>
<stop offset="1" stop-color="#0A6FA0"/>
</linearGradient>
<linearGradient id="paint24_linear_8_83" x1="5.21546" y1="13.3066" x2="5.21546" y2="14.9374" gradientUnits="userSpaceOnUse">
<stop stop-color="#042890"/>
<stop offset="1" stop-color="#0A6FA0"/>
</linearGradient>
<linearGradient id="paint25_linear_8_83" x1="25.9133" y1="13.3066" x2="25.9133" y2="14.9374" gradientUnits="userSpaceOnUse">
<stop stop-color="#042890"/>
<stop offset="1" stop-color="#0A6FA0"/>
</linearGradient>
<linearGradient id="paint26_linear_8_83" x1="16" y1="0" x2="16" y2="32" gradientUnits="userSpaceOnUse">
<stop stop-color="#042890"/>
<stop offset="1" stop-color="#0A6FA0"/>
</linearGradient>
</defs>
</svg>
